<svg xmlns="http://www.w3.org/2000/svg"><symbol id="cart" viewBox="0 0 24 24"><path d="M11.476 8.853a.998.998 0 0 1-.328-1.372l3.004-5.004A.99.99 0 0 1 15.001 2a.999.999 0 0 1 .851 1.519l-3.005 5.005a.997.997 0 0 1-1.371.329zM14.902 9l-.351.569A2.973 2.973 0 0 1 11.998 11a2.962 2.962 0 0 1-2.812-2H0v2h.643c.535 0 1.021.304 1.256.784L6 22h12l4.102-10.214A1.397 1.397 0 0 1 23.358 11H24V9h-9.098zM9 18a1 1 0 1 1-2 0v-4a1 1 0 1 1 2 0v4zm4 0a1 1 0 1 1-2 0v-4a1 1 0 1 1 2 0v4zm4 0a1 1 0 1 1-2 0v-4a1 1 0 1 1 2 0v4z"/></symbol><symbol id="down" viewBox="0 0 24 24"><path d="M0 7.33L2.829 4.5l9.175 9.339L21.171 4.5 24 7.33 12.004 19.5z"/></symbol><symbol id="facebook" viewBox="0 0 24 24"><path d="M22.675 0H1.325C.593 0 0 .593 0 1.325v21.351C0 23.407.593 24 1.325 24H12.82v-9.294H9.692v-3.622h3.128V8.413c0-3.1 1.893-4.788 4.659-4.788 1.325 0 2.463.099 2.795.143v3.24l-1.918.001c-1.504 0-1.795.715-1.795 1.763v2.313h3.587l-.467 3.622h-3.12V24h6.116c.73 0 1.323-.593 1.323-1.325V1.325C24 .593 23.407 0 22.675 0z"/></symbol><symbol id="instagram" viewBox="0 0 24 24"><path d="M15.233 5.488c-.843-.038-1.097-.046-3.233-.046s-2.389.008-3.232.046c-2.17.099-3.181 1.127-3.279 3.279-.039.844-.048 1.097-.048 3.233s.009 2.389.047 3.233c.099 2.148 1.106 3.18 3.279 3.279.843.038 1.097.047 3.233.047 2.137 0 2.39-.008 3.233-.046 2.17-.099 3.18-1.129 3.279-3.279.038-.844.046-1.097.046-3.233s-.008-2.389-.046-3.232c-.099-2.153-1.111-3.182-3.279-3.281zM12 16.108a4.108 4.108 0 1 1 0-8.215 4.108 4.108 0 0 1 0 8.215zm4.271-7.418a.96.96 0 1 1 0-1.92.96.96 0 0 1 0 1.92zM14.667 12a2.667 2.667 0 1 1-5.334 0 2.667 2.667 0 0 1 5.334 0zM19 0H5a5 5 0 0 0-5 5v14a5 5 0 0 0 5 5h14a5 5 0 0 0 5-5V5a5 5 0 0 0-5-5zm.952 15.298c-.132 2.909-1.751 4.521-4.653 4.654-.854.039-1.126.048-3.299.048s-2.444-.009-3.298-.048c-2.908-.133-4.52-1.748-4.654-4.654C4.009 14.445 4 14.173 4 12c0-2.172.009-2.445.048-3.298.134-2.908 1.748-4.521 4.654-4.653C9.556 4.009 9.827 4 12 4s2.445.009 3.299.048c2.908.133 4.523 1.751 4.653 4.653.039.854.048 1.127.048 3.299 0 2.173-.009 2.445-.048 3.298z"/></symbol><symbol id="left" viewBox="0 0 24 24"><path d="M16.67 0l2.83 2.829-9.339 9.175 9.339 9.167L16.67 24 4.5 12.004z"/></symbol><symbol id="close" viewBox="0 0 24 24"><path d="M12 0C5.373 0 0 5.373 0 12s5.373 12 12 12 12-5.373 12-12S18.627 0 12 0zm0 7.58l5.995 5.988-1.416 1.414L12 10.408l-4.59 4.574-1.416-1.414L12 7.58z"/></symbol><symbol id="profile" viewBox="0 0 24 24"><path d="M12 0C5.373 0 0 5.373 0 12s5.373 12 12 12 12-5.373 12-12S18.627 0 12 0zm0 22a9.983 9.983 0 0 1-7.749-3.69c.259-.588.783-.995 1.867-1.246 2.244-.518 4.459-.981 3.393-2.945C6.356 8.299 8.612 5 12 5c3.322 0 5.634 3.177 2.489 9.119-1.035 1.952 1.1 2.416 3.393 2.945 1.082.25 1.61.655 1.871 1.241A9.982 9.982 0 0 1 12 22z"/></symbol><symbol id="flag" viewBox="0 0 24 24"><path d="M12 0a12 12 0 1 0 12 12A12 12 0 0 0 12 0zM6.1 20.8V3.2A10.8 10.8 0 0 1 12 1.4a10.8 10.8 0 0 1 5.9 1.8v17.7a10.8 10.8 0 0 1-5.9 1.8 11.8 11.8 0 0 1-5.9-1.9z"/><path d="M15.8 12c-.2-.1-.3-.3-.2-.4l.3-.8c0-.1.1-.2.1-.3h-1.4l-.2-.5s-.1.2-.2.2l-.6.7-.3.3h-.1c-.1 0-.1-.1-.1-.3s.3-1.3.4-1.7.1-.3.1-.4h-.1c-.2-.2-.5 0-.7 0-.2 0-.2-.2-.3-.4a5.4 5.4 0 0 0-.5-.9 5.4 5.4 0 0 0-.5 1.1c-.1.2-.2.4-.3.4l-.6-.3h-.1s0 .3.1.4.3 1.4.4 1.7.1.3-.1.3h-.1c-.1 0-.2-.2-.3-.3l-.6-.8-.2-.2c0 .1-.2.4-.2.5H8.1a.4.4 0 0 0 .1.3l.3.8c.1.2 0 .3-.2.4H8l.4.3 1.7 1.3.2.3a1.4 1.4 0 0 1-.2.6h.4l1-.2h.5c.1 0 .1.1.1.2v1.9h.3v-2c0-.1 0-.2.1-.2h.5l1 .2h.4s.1-.1 0-.1a1.1 1.1 0 0 1-.2-.6l.2-.3.2-.2 1.5-1.1.4-.3h-.1c-.4.5-.5.4-.6.4z"/></symbol><symbol id="remove" viewBox="0 0 24 24"><path d="M12 0C5.373 0 0 5.373 0 12s5.373 12 12 12 12-5.373 12-12S18.627 0 12 0zm4.151 17.943l-4.143-4.102L7.891 18l-1.833-1.833 4.104-4.157L6 7.891l1.833-1.833 4.155 4.102L16.094 6l1.849 1.849-4.1 4.141L18 16.094l-1.849 1.849z"/></symbol><symbol id="sale"><path d="M12.628 21.412l5.969-5.97 1.458 3.71L7.715 24 2.907 11.762l9.721 9.65zM11.352 0H2v9.453L12.625 20 22 10.625 11.352 0zm4.025 9.476c-.415-.415-.865-.617-1.378-.617-.578 0-1.227.241-2.171.804-.682.41-1.118.584-1.456.584-.361 0-1.083-.408-.961-1.218.052-.345.25-.697.572-1.02.652-.651 1.544-.848 2.276-.106l.744-.744c-.476-.476-1.096-.792-1.761-.792-.566 0-1.125.227-1.663.677l-.626-.627-.698.699.653.652c-.569.826-.842 2.021.076 2.938 1.011 1.011 2.188.541 3.413-.232.6-.379 1.083-.563 1.475-.563.589 0 1.18.498 1.078 1.258-.052.386-.26.763-.621 1.122-.451.451-.904.679-1.347.679-.418 0-.747-.192-1.049-.462l-.739.739c.463.458 1.082.753 1.735.753.544 0 1.087-.201 1.612-.597l.54.538.697-.697-.52-.521c.743-.896 1.157-2.209.119-3.247zM5.699 2a1.7 1.7 0 1 1 0 3.399 1.7 1.7 0 0 1 0-3.399z"/></symbol><symbol id="secure" viewBox="0 0 24 24"><path d="M12 0C9.004 2.995 4.514 4 1 4c0 8.583 5.067 16.097 11 20 5.932-3.903 11-11.417 11-20-3.515 0-8.006-1.005-11-4zm-.587 14.953l-3.452-3.362 1.237-1.239 2.215 2.123L15.794 8l1.238 1.238-5.619 5.715z"/></symbol><symbol id="right-arrow" viewBox="0 0 24 24"><path d="M7.33 24L4.5 21.171l9.339-9.175L4.5 2.829 7.33 0 19.5 11.996z"/></symbol><symbol id="return" viewBox="0 0 24 24"><path d="M13.427 3.021H6V0L0 5.39 6 11V8h7.427c3.071 0 5.561 2.356 5.561 5.427 0 3.071-2.489 5.573-5.561 5.573H6v5h7.427C19.267 24 24 19.266 24 13.427S19.267 3.021 13.427 3.021z"/></symbol><symbol id="search" viewBox="0 0 24 24"><path d="M23.822 20.88l-6.353-6.354a9.407 9.407 0 0 0 1.467-5.059C18.937 4.248 14.689 0 9.468 0S0 4.248 0 9.468c0 5.221 4.247 9.469 9.468 9.469a9.41 9.41 0 0 0 4.839-1.333L20.703 24l3.119-3.12zM3.528 9.468A5.947 5.947 0 0 1 9.467 3.53a5.946 5.946 0 0 1 5.94 5.938 5.946 5.946 0 0 1-5.94 5.939 5.946 5.946 0 0 1-5.939-5.939z"/></symbol><symbol id="star" viewBox="0 0 24 24"><path d="M12 .587l3.668 7.568L24 9.306l-6.064 5.828 1.48 8.279L12 19.446l-7.417 3.967 1.481-8.279L0 9.306l8.332-1.151z"/></symbol><symbol id="shipping"><path d="M5 18H4a1 1 0 0 1-1-1v-2h12V6h4.667c1.117 0 1.6.576 1.936 1.107.594.94 1.536 2.432 2.109 3.378.188.312.288.67.288 1.035V16c0 1.121-.728 2-2 2h-1a3.001 3.001 0 0 1-6 0h-4a3.001 3.001 0 0 1-6 0zm3-1.2a1.201 1.201 0 0 1 0 2.4 1.201 1.201 0 0 1 0-2.4zm10 0a1.201 1.201 0 0 1 0 2.4 1.201 1.201 0 0 1 0-2.4zM8 8H0V6h8V5H3V4a1 1 0 0 1 1-1h9a1 1 0 0 1 1 1v10H3v-3H1V9h7V8zm9 0v3h4.715l-1.427-2.496A.999.999 0 0 0 19.42 8H17z"/></symbol><symbol id="to-top" viewBox="0 0 24 24"><path d="M0 16.67l2.829 2.83 9.175-9.339 9.167 9.339L24 16.67 12.004 4.5z"/></symbol><symbol id="twitter" viewBox="0 0 24 24"><path d="M19 0H5a5 5 0 0 0-5 5v14a5 5 0 0 0 5 5h14a5 5 0 0 0 5-5V5a5 5 0 0 0-5-5zm-.139 9.237c.209 4.617-3.234 9.765-9.33 9.765a9.286 9.286 0 0 1-5.032-1.475 6.605 6.605 0 0 0 4.86-1.359 3.285 3.285 0 0 1-3.066-2.28 3.3 3.3 0 0 0 1.482-.056c-1.579-.317-2.668-1.739-2.633-3.26.442.246.949.394 1.486.411A3.289 3.289 0 0 1 5.612 6.6a9.32 9.32 0 0 0 6.766 3.43 3.286 3.286 0 0 1 5.594-2.993 6.583 6.583 0 0 0 2.086-.796 3.296 3.296 0 0 1-1.443 1.816A6.578 6.578 0 0 0 20.5 7.54a6.66 6.66 0 0 1-1.639 1.697z"/></symbol><symbol id="warning" viewBox="0 0 24 24"><path d="M12 2c5.514 0 10 4.486 10 10s-4.486 10-10 10S2 17.514 2 12 6.486 2 12 2zm0-2C5.373 0 0 5.373 0 12s5.373 12 12 12 12-5.373 12-12S18.627 0 12 0zm-1.31 7.526A1.36 1.36 0 0 1 12.038 6a1.29 1.29 0 0 1 1.28 1.451l-.757 6.053a.566.566 0 0 1-1.123 0l-.748-5.978zM12 18.25a1.25 1.25 0 1 1 0-2.5 1.25 1.25 0 0 1 0 2.5z"/></symbol></svg>
