<svg xmlns="http://www.w3.org/2000/svg" width="11.11in" height="11.11in" viewBox="0 0 800 800"><g id="Badge"><path d="M400.06,793.88A393.92,393.92,0,0,1,246.77,37.19,393.92,393.92,0,0,1,553.35,762.93,391.24,391.24,0,0,1,400.06,793.88Z" fill="#036"/><path d="M400.06,9.75A390.42,390.42,0,0,1,552,759.71,390.42,390.42,0,0,1,248.14,40.42,387.85,387.85,0,0,1,400.06,9.75m0-7C180.63,2.75,2.75,180.63,2.75,400.06S180.63,797.38,400.06,797.38,797.38,619.49,797.38,400.06,619.49,2.75,400.06,2.75Z" fill="#fc9"/><circle cx="400.06" cy="400.06" r="271.85" fill="#036" stroke="#fc9" stroke-miterlimit="10" stroke-width="7"/></g><g id="QuoteText"><path d="M77.77,582.19,94.4,568.32l-9.26-18.06-20.92,5.49-4.11-8,74.18-18.25L140,540.63,82,590.39Zm15.59-34.05,7.56,14.74,28.88-24-.09-.18Z" fill="#fc9"/><path d="M163.33,607.78c5-6.26,6.28-11.29,2.08-16.42-3.93-4.81-9-5.61-13.73-1.74-13.06,10.69,8,33.17-10.74,48.52-9.7,7.93-20.06,6.38-27.93-3.24-7.74-9.46-6.52-17.94,2.31-28.24l6.43,5.57c-6,7-7,12-2.29,17.8,4.33,5.29,10,6.23,15.41,1.83,14-11.47-7-33.44,11.17-48.32,8.81-7.22,18.54-5.95,25.62,2.71,7.48,9.13,5.78,18-2.23,26.7Z" fill="#fc9"/><path d="M164.91,686l19.56-61.59-.15-.14-39.13,44.32-6.13-5.41,49.2-55.73,9.08,8-17.23,53.16.16.13,33.91-38.42,6.21,5.48L171.2,691.51Z" fill="#fc9"/><path d="M217.84,722.28l7-20.47-17.26-10.67-15.07,15.52-7.66-4.74,54-54,10.66,6.58-23.93,72.6Zm-4.27-37.21,14.09,8.71L240,658.3l-.18-.11Z" fill="#fc9"/><path d="M272.09,747.44l-.34-41L258,715.26l-9.36,22.35-8-3.36,28.71-68.57,8,3.36L263.6,701.79l.19.09,35-23.84,8.88,3.72-26.75,18.31.14,51.13Z" fill="#fc9"/><path d="M294.36,754.88l18.23-72.07,34.33,8.68-2.06,8.13-25.69-6.5-5.72,22.59,19.08,4.82-2,7.93-19.07-4.82-6.4,25.29,27.21,6.88-2.06,8.13Z" fill="#fc9"/><path d="M368.21,769.08l2.73-74.29,17,.63c15.83.58,23.55,7.49,23,22s-9.18,21.32-24.59,20.75l-8.08-.3-1.16,31.56ZM387.05,730c8,.29,14.41-3,14.77-12.93.34-9.1-4.29-12.9-13.6-13.24l-8.69-.32-1,26.18Z" fill="#fc9"/><path d="M459.68,765.41,452.37,745l-20.14,2.48-2,21.54-8.94,1.1,8.38-75.94,12.43-1.53,26.77,71.61Zm-26.61-26.35,16.44-2-12.6-35.38-.2,0Z" fill="#fc9"/><path d="M495.42,700.12c-3.73-7.12-7.84-10.26-14.22-8.47-6,1.69-8.74,6-7.09,11.89,4.58,16.25,33.61,5.92,40.18,29.24,3.4,12.05-2.17,20.94-14.13,24.3-11.76,3.32-19.05-1.19-25-13.4l7.68-3.67c4.06,8.32,8.22,11.24,15.39,9.22,6.58-1.85,9.73-6.72,7.85-13.4-4.91-17.44-33.47-6.92-39.84-29.54-3.09-11,2-19.38,12.73-22.41,11.36-3.2,18.82,1.91,23.59,12.72Z" fill="#fc9"/><path d="M537.67,683.25c-4.71-6.52-9.23-9-15.29-6.35-5.68,2.52-7.79,7.2-5.31,12.78,6.85,15.43,34.12,1.05,43.95,23.19,5.09,11.45.85,21-10.5,26.08-11.16,5-19,1.54-26.63-9.7l7.08-4.73c5.21,7.66,9.74,10,16.55,6.92,6.25-2.77,8.67-8,5.85-14.38C546,700.5,519.26,715,509.71,693.52c-4.62-10.41-.83-19.46,9.39-24,10.79-4.79,18.9-.81,25.17,9.21Z" fill="#fc9"/><path d="M582.18,722l-37.31-64.3,7.79-4.52L590,717.51Z" fill="#fc9"/><path d="M582,679.47c-15.08-20-16.84-34.89-4.27-44.37s26.47-3.75,41.56,16.26S636,686.6,623.64,696,597.06,699.4,582,679.47Zm30-22.63c-12.34-16.37-22-20.75-29.36-15.21s-5.8,16,6.55,32.42,22.35,20.88,29.55,15.45S624.45,673.29,612,656.84Z" fill="#fc9"/><path d="M679.42,643l-61-21.27-.14.15,43.21,40.35-5.58,6-54.34-50.72,8.27-8.86,52.65,18.7.14-.15-37.46-35,5.65-6.06,54.34,50.73Z" fill="#fc9"/><path d="M711.17,601l-64.38-37.16,8.49-14.71c7.91-13.72,17.64-17.31,30.19-10.07s14.55,18.08,6.84,31.44l-4,7,27.35,15.78Zm-25.74-34.94c4-6.91,4.1-14.14-4.51-19.11-7.89-4.55-13.41-2.24-18.07,5.83l-4.35,7.54,22.69,13.09Z" fill="#fc9"/><path d="M750.44,519.43l-35-.1L711.37,530l30.55,11.71L738.73,550l-69.41-26.59,6.15-16.05c5.7-14.89,14.09-19.43,26.76-14.58,9.18,3.52,13.26,10,13.31,17.63l38.42-.14Zm-43.35-.86c2.26-5.9,2.61-13.19-7.35-17s-13.82,1.36-16.64,8.71l-3,7.73,23.69,9.08Z" fill="#fc9"/><path d="M721.57,488.65c-24.56-5-35.74-15-32.61-30.39s17.34-20.36,41.89-15.38,35.88,15.31,32.79,30.53S746,493.61,721.57,488.65ZM729,451.81c-20.09-4.07-30.23-.95-32.06,8.08s6.29,15.85,26.38,19.93,30.58.82,32.37-8S749.23,455.91,729,451.81Z" fill="#fc9"/><path d="M770.15,425.42c-.39,6.92-3.65,11.3-10.88,14.41l-3.83-7.37c4-1.74,6-4.11,6.23-7.32.29-5.06-3-7.12-10.36-7.54l-55.92-3.2.51-8.89,55.3,3.17C763.29,409.37,770.82,413.74,770.15,425.42Z" fill="#fc9"/><path d="M770.24,389.34l-74.14,5.39-2.57-35.31,8.36-.61,1.93,26.44,23.23-1.7-1.43-19.62,8.16-.59L735.21,383l26-1.9-2-28,8.36-.61Z" fill="#fc9"/><path d="M732.53,302c16.86-1.49,26.33,3.27,29.1,15.48,3.61,16-8.57,25-32.5,30.41-22.41,5.08-38.36,1.69-41.87-13.75-2.74-12.12,3.78-19.86,18.27-25.27l2.64,7.89C698,321,694,325.92,695.44,332.28c2,8.79,12.42,11.2,31.7,6.83,20.6-4.67,28.49-10.6,26.38-19.89-1.6-7.07-8-9.75-19.92-8.76Z" fill="#fc9"/><path d="M746.42,270.06,685,294l5.89,15.14-7.81,3-15-38.49,7.81-3,5.86,15.05,61.46-23.9Z" fill="#fc9"/></g><g id="InnerRingBigger"><circle cx="400.06" cy="400.06" r="247.29" fill="#036"/><circle transform="rotate(90, 400, 400)" cx="400.06" cy="400.06" r="247.29" fill="none" stroke="#fc9" stroke-miterlimit="10" stroke-width="7" stroke-dasharray="388.46 0 0 0 0.01 388.44"/></g><g id="InnerRingSmaller"><circle cx="400.06" cy="400.06" r="223.32" fill="#036"/><circle transform="rotate(70, 400, 400)" cx="400.06" cy="400.06" r="223.32" fill="none" stroke="#fc9" stroke-miterlimit="10" stroke-width="7" stroke-dasharray="350.81 0 0 0 0.01 350.79"/></g><g id="NerdyNoodsText"><path d="M21,410.23a4.62,4.62,0,0,1,3.08-4.65l44.37-17.9c1.2-.52.94-1.59-.39-1.59l-43-.19c-2.66,0-4-1.48-4-4l.06-14.9c0-2.66,1.35-4,4-4l85.12.36c2.53,0,4,1.35,4,4L114.19,387a4.59,4.59,0,0,1-3.08,4.64l-44.37,17.9c-1.2.53-.93,1.59.4,1.6l43,.18c2.52,0,4,1.35,4,4l-.07,14.9a3.64,3.64,0,0,1-4,4l-85.13-.36c-2.66,0-4-1.49-4-4Z" fill="#fc9"/><path d="M41.54,273.83q1-3.85,4.89-2.82l14.39,3.86c2.44.65,3.51,2.31,2.82,4.88l-8.33,31.09c-.65,2.44.25,4.2,2.82,4.89l4.11,1.1A3.65,3.65,0,0,0,67.13,314l5.33-19.91q1-3.86,4.89-2.82l14.39,3.85c2.44.65,3.51,2.32,2.82,4.89l-5.34,19.91c-.65,2.44.26,4.2,2.82,4.89l4.12,1.1A3.63,3.63,0,0,0,101,323.1L109.37,292q1-3.86,4.89-2.82L128.65,293q3.85,1,2.82,4.89L117,351.88a3.64,3.64,0,0,1-4.89,2.82l-82.21-22c-2.57-.69-3.48-2.44-2.82-4.88Z" fill="#fc9"/><path d="M162.22,224.7c3.92.05,6.15,3.72,4.14,7.33L159,245.28a3.25,3.25,0,0,1-3.12,1.77l-30.09-.9a1.35,1.35,0,0,0-1.09.61l-2.59,4.65a4,4,0,0,0,1.6,5.61l18.37,10.21a4,4,0,0,1,1.6,5.6l-7.24,13a4,4,0,0,1-5.6,1.61L56.67,246.23a4,4,0,0,1-1.6-5.61l14.15-25.46c11.5-20.69,25-24.15,44.05-13.55,10.81,6,16.88,12.88,17.88,21.5a1.4,1.4,0,0,0,1.32,1.18Zm-75.91,6.81a4,4,0,0,0,1.6,5.6l8.6,4.79a4,4,0,0,0,5.61-1.61l3.29-5.92c3.1-5.58,4-8.76-3.25-12.77s-9.46-1.6-12.56,4Z" fill="#fc9"/><path d="M129.9,134.19c17.5-17.86,30.49-16.67,46.07-1.4l20.8,20.38c15.58,15.27,17.12,28.33-.38,46.19l-20.77,21.18a3.64,3.64,0,0,1-5.64.05L109.29,161.1c-1.9-1.86-1.92-3.74-.15-5.73Zm50.43,48.87c4.47-4.56,5.94-7.58.24-13.17l-20.89-20.48c-5.89-5.78-8.7-4-13.16.51l-5,5.12c-1.77,1.81-1.84,3.79,0,5.65l28.12,27.55a3.64,3.64,0,0,0,5.64-.05Z" fill="#fc9"/><path d="M179.18,91.68a4.34,4.34,0,0,1,5.46.08L206.44,107c1.11.71,1.77.27,1.56-1l-5.35-26.08a4.32,4.32,0,0,1,2.1-5l15.9-10.44c2.56-1.68,4.69-.85,5.11,2.21l9.3,57.54a3.43,3.43,0,0,0,.65,1.48L252,150.48c1.39,2.11,1.08,4.07-1.15,5.53l-15.56,10.22a3.65,3.65,0,0,1-5.53-1.15l-16.27-24.79a3.47,3.47,0,0,0-1.1-1.19l-49.21-31.34c-2.65-1.6-2.56-3.89,0-5.57Z" fill="#fc9"/><path d="M318.13,29.78a4.59,4.59,0,0,1,5.14,2.14l26,40.15c.74,1.07,1.74.61,1.49-.69l-8-42.21c-.5-2.62.69-4.19,3.17-4.67l14.64-2.77c2.61-.5,4.17.56,4.66,3.18l15.87,83.63c.47,2.48-.57,4.17-3.18,4.66l-19.21,3.65a4.6,4.6,0,0,1-5.14-2.14l-26-40.15c-.74-1.07-1.74-.61-1.49.69l8,42.21c.47,2.48-.56,4.17-3.17,4.66l-14.64,2.78a3.64,3.64,0,0,1-4.66-3.18L295.74,38.09c-.49-2.61.7-4.19,3.18-4.66Z" fill="#fc9"/><path d="M453.17,86.84c-.55,8.76-3.89,32.14-35.35,30.16S386,91.42,386.53,82.66l2.09-33.19c.55-8.76,3.88-32.14,35.34-30.16S455.8,44.9,455.25,53.66ZM432,59.26c.64-10.22.37-16.5-9.45-17.12S411.65,47.72,411,57.94l-1.2,19.11c-.65,10.22-.37,16.5,9.45,17.12s10.88-5.58,11.52-15.8Z" fill="#fc9"/><path d="M524.86,108c-2.58,8.39-11.3,30.33-41.42,21s-25-32.34-22.38-40.72l9.81-31.78c2.58-8.39,11.3-30.33,41.42-21s25,32.34,22.38,40.73ZM510.73,76.21c3-9.79,4.23-16-5.18-18.86S493.67,60.23,490.65,70L485,88.31c-3,9.79-4.22,16,5.18,18.86s11.88-2.87,14.9-12.66Z" fill="#fc9"/><path d="M593.81,74.2c21.54,12.71,23.5,25.6,12.42,44.39l-14.81,25.08c-11.08,18.79-23.39,23.42-44.92,10.71L521,139.31a3.65,3.65,0,0,1-1.41-5.47l43.2-73.19c1.35-2.29,3.17-2.76,5.53-1.53Zm-35.34,60.68c5.49,3.25,8.78,4,12.84-2.92l14.87-25.2c4.19-7.1,1.85-9.41-3.65-12.66l-6.19-3.65c-2.17-1.28-4.11-.88-5.46,1.41l-20,33.91a3.64,3.64,0,0,0,1.41,5.46Z" fill="#fc9"/><path d="M654.47,164.86c-2.26-1.5-2.36-3.29-.77-5.46,3.18-4.52,2.5-10.07-1.93-14.47-3.69-3.65-8.11-3.73-9.88-1.19-6,8.68,24,38.09,2.48,59.8-2.81,2.84-22.6,16.36-45-5.84C579.57,178,588.25,160.78,595.09,153c1.59-1.79,3.47-2,5.55-.68l13,8.23c2.27,1.49,2.46,3.37.68,5.54-4.12,4.91-3.25,11,1.19,15.42,4.63,4.59,10.74,5.23,12.71,2.12,6.16-9.81-24-36.21-2.48-57.92,2.71-2.93,21-18,42.14,3,19.44,19.3,11.42,36.45,5.24,43.81-1.59,1.79-3.47,2-5.54.67Z" fill="#fc9"/></g><g id="Head"><ellipse id="SecondEye" cx="531.12" cy="343.88" rx="12.87" ry="23.27" transform="translate(-60.95 120.74) rotate(-12.27)" fill="#036" stroke="#fc9" stroke-miterlimit="10" stroke-width="5"/><path id="HeadBase" d="M196.76,372.47c-3.37,11.58-5.32,25.68-1.88,40.69,5.24,22.84,19.48,32.66,40.07,63.6a324.14,324.14,0,0,1,23.17,41,97,97,0,0,0,33,21.29,104.62,104.62,0,0,0,40.21,6.26c19.52-.7,19.42-5.93,48.64-9.59a338.26,338.26,0,0,1,34.63-2.31c10.82-.25,20.14,0,27.46.3a158.51,158.51,0,0,0,132.54-47.25c17.36-17.76,42.52-43.5,37.85-75.14-2.79-18.87-15-32.08-22.54-38.81-44.52,3.17-61.92-7.39-69.34-18.32-14.7-21.64,5.36-51.23-13.61-70.27-9.67-9.69-19.44-6.89-37.26-21.84A91.77,91.77,0,0,1,451,240.36c-18.22-8.69-49.15-20-88-18.47-43.59,1.76-73.3,18.83-101.26,34.9C241.84,268.21,211.48,286.1,200,314.3a99.1,99.1,0,0,0-6.88,35.07A85.08,85.08,0,0,0,196.76,372.47Z" fill="#fc9" stroke="#fc9" stroke-miterlimit="10" stroke-width="15"/><path id="HeadMark" d="M193.89,359.58c-.28,3.5-.11,8.59,2.87,12.89,9.83,14.12,40.68,5.76,99.18-4.82,87.51-15.83,105.35-12.86,117-3.31,6.58,5.38,14.12,15.22,30.47,22.21,8.91,3.81,15.65,4.73,24.42,11a59.29,59.29,0,0,1,16.22,17.69A129.17,129.17,0,0,0,460,429.28c-10.5,7.8-13.28,12.37-21.1,17.57a77,77,0,0,1-34.31,10.77c-35.41,1.89-59.43-32-70.08-23.76-4,3.12-3.72,10.4-3.64,12.33.55,12.8,13.93,19.23,11.55,24.89-1.33,3.16-5.71,1.63-11.56,5-10.63,6-6.8,17.12-15.26,24.24-6.65,5.59-13.46,3.08-43.11,2.41-9.57-.21-17.25.18-21.74.49a47,47,0,0,0,7.34,14.54,48.24,48.24,0,0,0,21.75,16.08,182.44,182.44,0,0,0,38.79-7.13c38.87-11.62,39.31-26.15,69.06-35.87,44.33-14.49,82.2,5.06,96.42-15.65,2.36-3.44,5.38-9.91,13.15-17.53,6.93-6.81,13.64-10.63,20.87-14.4,14.51-7.59,27.09-14.17,46.74-20.67a284.19,284.19,0,0,1,47.59-11.27,78.48,78.48,0,0,0-5.56-16.51,60,60,0,0,0-11-16.85,54.63,54.63,0,0,0-6-5.45h0a15.37,15.37,0,0,0-6-1.22c-9.55.9-17-1.58-27.69,3.83-2.91,1.48-3,1.93-5.28,3.08-11.17,5.61-31.48,3-39.28-7.1-14.42-18.59,6.36-72,1.43-79.54a61.62,61.62,0,0,0-6.12-7.64,19.13,19.13,0,0,0-2.05-2c-3.31-2.58-7.59-3-22.28-10.94a75.38,75.38,0,0,1-12.93-8.9A91.77,91.77,0,0,1,451,240.36c-18.22-8.69-49.15-20-88-18.47-44.42,1.79-74.83,19.5-101.26,34.9C233.8,273.05,211.3,286.59,200,314.3,192.63,332.19,192.82,349,193.89,359.58Z" fill="#036" stroke="#fc9" stroke-miterlimit="10"/><path id="EyeMark" d="M193.07,408.15a37,37,0,0,0,13.57,10c8.8,3.67,13.31,1.13,22.14,2.42,18.06,2.64,19.38,16.25,34.35,17.62,10.16.93,13.13-5,26.9-9.4,9.82-3.12,24.35-5.2,44.47,0l5.64,25.67c-14.67-6.16-32.85-10.83-45.83-2.5-11.37,7.29-11,19.58-21.77,25-7.91,4-21.4,4.14-46-12.28a143.14,143.14,0,0,1-33.49-56.59Z" fill="#036" stroke="#fc9" stroke-miterlimit="10"/><g id="Glasses"><path id="GlassesFrame" d="M283.79,396.88a128.52,128.52,0,0,0,17.95,51.81A123.36,123.36,0,0,0,312.07,463c-12-22.08-12.24-48.28.42-67.89,20.7-32.07,67.35-33.3,89.93-18.16,18.29,12.28,23.81,32.43,25.37,39.36-1.6-5-8-27.18,3.94-48,10.42-18.14,35.37-34.34,58-27.11,12.52,4,19.88,13.65,23,18.39-4.42-12.13-2.28-25.43,5.76-34.67,6.68-7.68,18.74-14.06,30.35-10.64,13.51,4,18.29,18.81,20.44,25.44,4.95,15.36,1.29,28.75,1.48,28.77s4.8-17.66,1-39.93A103.89,103.89,0,0,0,558.64,293c-9.66,0-39.67,1.26-58.27,23.13a56.7,56.7,0,0,0-6.84,10.06,69.33,69.33,0,0,0-78.89,31.93c-8.86-3.32-40.4-13.9-77.14-1.06A113.81,113.81,0,0,0,283.79,396.88Z" fill="#036" stroke="#fc9" stroke-miterlimit="10" stroke-width="4"/><path d="M320.77,470.7a67.64,67.64,0,0,0,47.11,8.83c25-4.65,38.52-22.08,41.38-26" fill="none" stroke="#fc9" stroke-miterlimit="10" stroke-width="5"/><path id="GLassesLens" d="M330.67,368.71c-33.53,25.55-38.93,68.75-19.95,92.66,16.52,20.81,48.21,22.87,70.11,14.4,32-12.37,45.3-48.08,43.1-73.73a62.41,62.41,0,0,0-3-14.55" fill="none" stroke="#036" stroke-miterlimit="10" stroke-width="2"/></g><path id="LeftNostril" d="M544.94,452.15c-1-1.37-12.28-16.59-6.2-29.7,2.29-5,8.14-11.93,13.71-10.88,4.25.79,6.48,5.9,6.79,6.61C565.08,431.56,546.47,450.62,544.94,452.15Z" fill="#036" stroke="#fc9" stroke-miterlimit="10" stroke-width="4"/><path id="RightNostril" d="M601.58,428.5c.28-1.38,3.12-16.64-6.05-24.14-3.47-2.83-10.28-5.88-14-3.12-2.84,2.11-2.66,6.67-2.64,7.31C579.36,420.51,599.9,427.91,601.58,428.5Z" fill="#036" stroke="#fc9" stroke-miterlimit="10" stroke-width="4"/><g id="Smile"><path d="M410,505.84a192.34,192.34,0,0,0,21.56,6.65,121.11,121.11,0,0,0,22.2,3.48,87.35,87.35,0,0,0,11.21,0A77.5,77.5,0,0,0,476,514.3a63.09,63.09,0,0,0,20.4-8.76c6.3-4,12.08-9,18.57-13a75.2,75.2,0,0,1,10.11-5.37l1.31-.59,1.33-.51,2.68-1c1.81-.57,3.61-1.21,5.45-1.71a95.07,95.07,0,0,1,22.53-3.41,116.29,116.29,0,0,1,22.68,1.7.49.49,0,0,1,.4.57.48.48,0,0,1-.44.41h-.12a207.71,207.71,0,0,0-22.31,2.72A115.43,115.43,0,0,0,538,491.06a82.27,82.27,0,0,0-18,9.52c-1.39,1-2.82,2-4.23,3s-2.85,2.19-4.33,3.36c-3,2.26-6.17,4.68-9.67,7a70,70,0,0,1-11.37,5.93,63.86,63.86,0,0,1-6.1,2.13l-3.1.85c-1,.25-2.09.45-3.14.67a76,76,0,0,1-24.84.43,98.83,98.83,0,0,1-23-6.22,110.43,110.43,0,0,1-20.61-11l-.09-.07a.49.49,0,0,1-.13-.68A.51.51,0,0,1,410,505.84Z" fill="#036"/></g></g><g id="Eye"><path d="M363.3,388.12c-14.47-5.68-23.51-1.68-25.67-.63-17.09,8.36-17.84,35.55-13.42,51.56,1.7,6.14,4.5,16.28,14.05,22.32,11.71,7.41,29.38,6,38.2-3.75,6.46-7.16,6.35-16.81,6.25-26.49a66.81,66.81,0,0,0-4.38-23c-5.92,5.65-15.12,4.78-19.41-.62C354.48,402,356,392.39,363.3,388.12Z" fill="#036" stroke="#fc9" stroke-miterlimit="10" stroke-width="5"/></g></svg>
